<?xml version="1.0" encoding="UTF-8" standalone="no"?>
<!-- Created with Inkscape (http://www.inkscape.org/) -->

<svg
   id="svg502"
   version="1.1"
   viewBox="0 0 210 297"
   height="297mm"
   width="210mm"
   sodipodi:docname="superlablogofabicon.svg"
   inkscape:version="1.1 (c68e22c387, 2021-05-23)"
   xmlns:inkscape="http://www.inkscape.org/namespaces/inkscape"
   xmlns:sodipodi="http://sodipodi.sourceforge.net/DTD/sodipodi-0.dtd"
   xmlns="http://www.w3.org/2000/svg"
   xmlns:svg="http://www.w3.org/2000/svg">
  <sodipodi:namedview
     id="namedview504"
     pagecolor="#ffffff"
     bordercolor="#666666"
     borderopacity="1.0"
     inkscape:pageshadow="2"
     inkscape:pageopacity="0.0"
     inkscape:pagecheckerboard="0"
     inkscape:document-units="mm"
     showgrid="false"
     inkscape:zoom="2.1266375"
     inkscape:cx="291.06982"
     inkscape:cy="585.66633"
     inkscape:window-width="1868"
     inkscape:window-height="1016"
     inkscape:window-x="52"
     inkscape:window-y="27"
     inkscape:window-maximized="1"
     inkscape:current-layer="layer1">
    <inkscape:grid
       type="xygrid"
       id="grid18299" />
  </sodipodi:namedview>
  <defs
     id="defs499">
    <clipPath
       id="clip1">
      <path
         d="M 0 0 L 93.488281 0 L 93.488281 140.941406 L 0 140.941406 Z M 0 0 "
         id="path560" />
    </clipPath>
  </defs>
  <g
     inkscape:label="Layer 1"
     inkscape:groupmode="layer"
     id="layer1">
    <g
       id="surface1"
       transform="matrix(0.35277778,0,0,0.35277778,88.550583,123.81545)">
      <g
         clip-path="url(#clip1)"
         clip-rule="nonzero"
         id="g567">
        <path
           style="fill:#ffffff;fill-opacity:1;fill-rule:nonzero;stroke:none"
           d="M 20.316406,-0.00390625 0,20.152344 v 51.921875 l 17.703125,17.707031 40.566406,0.0039 v 15.19141 H 39.527344 V 93.515625 H 0.0195312 l -0.0039062,29.519535 17.8125,17.90625 h 57.929687 l 17.71875,-17.69532 V 70.765625 L 75.460938,53.257812 H 38.300781 V 36.898438 h 18.433594 l -0.0039,12.921874 h 36.7539 L 93.488281,20.1875 73.714844,-0.00390625 H 20.316406"
           id="path565" />
      </g>
      <path
         style="fill:#a60a2e;fill-opacity:1;fill-rule:nonzero;stroke:none"
         d="m 1.207031,20.78125 v 50.570312 l 17.191407,17.191407 h 41.089843 v 17.558591 h -21.125 V 94.648438 H 1.246094 v 27.644532 l 17.261718,17.39844 h 56.621094 l 17.1875,-17.17578 V 71.363281 L 74.800781,54.4375 H 37.09375 V 35.609375 l 20.867188,-0.0039 v 12.976562 l 34.355468,0.0039 V 20.800781 L 73.082031,1.121094 H 20.996094 L 1.207031,20.78125"
         id="path569" />
      <path
         style="fill:#ffffff;fill-opacity:1;fill-rule:nonzero;stroke:none"
         d="m 3.46875,21.808594 v 48.648437 l 15.847656,15.851563 c 0,0 38.320313,0 42.433594,-0.0039 0,3.472656 0,18.671876 -0.0039,22.140626 -3.589844,0 -22.105469,0 -25.699219,0.004 0,-2.92969 0,-11.45313 0,-11.45313 H 3.507812 v 24.38272 L 19.40625,137.46094 H 74.164062 L 90,121.61328 V 72.339844 L 73.796875,56.785156 c 0,0 -34.921875,0 -39.023437,0 0,-3.519531 0,-19.894531 0,-23.410156 3.585937,0 21.863281,0 25.449218,0 0,3.101562 0,12.972656 0,12.972656 H 90 V 21.816406 L 72.109375,3.46875 H 21.890625 L 3.46875,21.808594"
         id="path571" />
      <path
         style="fill:#a60a2e;fill-opacity:1;fill-rule:nonzero;stroke:none"
         d="M 22.828125,5.925781 5.773438,22.941406 V 69.675781 L 20.28125,84.183594 H 64.050781 V 110.90625 H 33.769531 V 99.453125 H 5.808594 V 120.57422 L 20.34375,135.33203 H 73.238281 L 87.71875,120.81641 87.722656,73.429688 72.835938,59.238281 H 32.492188 V 31.246094 H 62.527344 V 44.226562 H 87.71875 L 87.722656,22.941406 71.179688,5.925781 H 22.828125"
         id="path573" />
      <path
         style="fill:#a60a2e;fill-opacity:1;fill-rule:nonzero;stroke:none"
         d="m 55.585938,77.792969 c 0,0.0078 -0.01953,0.04687 -0.09375,0.128906 0.03516,-0.03906 0.06641,-0.08203 0.09375,-0.128906"
         id="path575" />
    </g>
    <path
       style="fill:none;stroke:#a60a2e;stroke-width:1.065;stroke-linecap:butt;stroke-linejoin:miter;stroke-opacity:1;stroke-miterlimit:4;stroke-dasharray:none"
       d="m 134.93857,123.26043 -59.918049,-0.29343 -15.191136,16.71484 45.165245,45.2617 45.28874,-45.26813 z"
       id="path933"
       sodipodi:nodetypes="cccccc" />
    <path
       style="fill:none;stroke:#a60a2e;stroke-width:1.465;stroke-linecap:butt;stroke-linejoin:miter;stroke-opacity:1;stroke-miterlimit:4;stroke-dasharray:none;opacity:1"
       d="M 59.937057,185.96988 H 150.00813"
       id="path4247" />
    <text
       xml:space="preserve"
       style="font-style:normal;font-variant:normal;font-weight:normal;font-stretch:normal;font-size:10.5833px;line-height:1.25;font-family:'Liberation Serif';-inkscape-font-specification:'Liberation Serif, Normal';font-variant-ligatures:normal;font-variant-caps:normal;font-variant-numeric:normal;text-align:start;letter-spacing:0px;word-spacing:0px;writing-mode:lr-tb;text-anchor:start;fill:#a60a2e;fill-opacity:1;stroke:#a60a2e;stroke-width:0.264583;stroke-opacity:1"
       x="62.729397"
       y="184.49556"
       id="text8597"><tspan
         sodipodi:role="line"
         id="tspan8595"
         style="stroke-width:0.264583;stroke:#a60a2e;stroke-opacity:1;fill:#a60a2e;fill-opacity:1"
         x="62.729397"
         y="184.49556">SUPER</tspan></text>
    <text
       xml:space="preserve"
       style="font-style:normal;font-variant:normal;font-weight:normal;font-stretch:normal;font-size:10.5833px;line-height:1.25;font-family:'Liberation Serif';-inkscape-font-specification:'Liberation Serif, Normal';font-variant-ligatures:normal;font-variant-caps:normal;font-variant-numeric:normal;text-align:start;letter-spacing:0px;word-spacing:0px;writing-mode:lr-tb;text-anchor:start;fill:#a60a2e;fill-opacity:1;stroke:#a60a2e;stroke-width:0.264583;stroke-opacity:1"
       x="119.92986"
       y="184.59456"
       id="text8597-3"><tspan
         sodipodi:role="line"
         id="tspan8595-6"
         style="stroke-width:0.264583;fill:#a60a2e;fill-opacity:1;stroke:#a60a2e;stroke-opacity:1"
         x="119.92986"
         y="184.59456">LAB</tspan></text>
    <path
       style="fill:#a60a2e;stroke:#a60a2e;stroke-width:1.465;stroke-linecap:butt;stroke-linejoin:miter;stroke-opacity:1;stroke-miterlimit:4;stroke-dasharray:none;fill-opacity:1"
       d="M 104.82243,122.90366 104.5925,102.85098"
       id="path18507" />
    <path
       style="fill:#a60a2e;stroke:#a60a2e;stroke-width:1.465;stroke-linecap:butt;stroke-linejoin:miter;stroke-opacity:1;stroke-miterlimit:4;stroke-dasharray:none;fill-opacity:1"
       d="m 105.22456,204.99622 -0.22993,-20.05268"
       id="path18507-7" />
  </g>
</svg>
